# Blender 3.3.1
# www.blender.org
mtllib fence.mtl
o Cube
v 1.419239 5.505023 0.000000
v -0.505093 -0.000002 0.000000
v 0.000000 6.919237 0.000000
v 0.505092 -0.000002 0.000000
v 0.994975 5.080759 0.000000
v -0.994975 5.080759 0.000000
v -1.419239 5.505023 0.000000
v 0.505092 5.570267 0.000000
v -0.505093 5.570266 0.000000
v -0.505092 0.000000 50.000000
v 1.419239 5.505025 50.000000
v 0.000000 6.919239 50.000000
v -0.505092 5.570269 50.000000
v -0.994975 5.080761 50.000000
v -1.419239 5.505025 50.000000
v 0.505092 5.570269 50.000000
v 0.505092 0.000000 50.000000
v 0.994975 5.080761 50.000000
v -0.000000 6.069644 0.000000
v 0.000000 6.069645 50.000000
vn -0.0000 -0.0000 -1.0000
vn 1.0000 -0.0000 -0.0000
vn -0.0000 -1.0000 -0.0000
vn 0.7071 -0.7071 -0.0000
vn 0.7068 -0.7074 -0.0000
vn -0.7071 -0.7071 -0.0000
vn -0.0000 -0.0000 1.0000
vn -0.7059 0.7084 -0.0000
vn -0.7068 -0.7074 -0.0000
vn 0.7059 0.7084 -0.0000
vn -1.0000 -0.0000 -0.0000
vt 0.947797 0.004405
vt 0.854405 0.736928
vt 0.904405 0.780406
vt 0.797797 0.867363
vt 0.945595 0.002203
vt 0.404405 0.997797
vt 0.004405 0.693450
vt 0.402203 0.995595
vt 0.002203 0.915246
vt 0.402203 0.691247
vt 0.947797 0.700057
vt 0.902203 0.778203
vt 0.797797 0.700057
vt 0.797797 0.787014
vt 0.795595 0.784811
vt 0.795595 0.697855
vt 0.847797 0.743536
vt 0.802203 0.778203
vt 0.004405 0.954319
vt 0.402203 0.958724
vt 0.002203 0.002203
vt 0.002203 0.952116
vt 0.897797 0.736928
vt 0.847797 0.693450
vt 0.902203 0.002203
vt 0.847797 0.736928
vt 0.002203 0.871768
vt 0.852203 0.002203
vt 0.897797 0.004405
vt 0.804405 0.736928
vt 0.945595 0.697855
vt 0.797797 0.780406
vt 0.895595 0.002203
vt 0.797797 0.960927
vt 0.797797 0.004405
vt 0.897797 0.700057
vt 0.947797 0.780406
vt 0.804405 0.693450
vt 0.795595 0.958724
vt 0.395595 0.002203
vt 0.802203 0.691247
vt 0.854405 0.780406
vt 0.845595 0.741333
vt 0.797797 0.997797
vt 0.004405 0.910841
vt 0.847797 0.700057
vt 0.902203 0.697855
vt 0.397797 0.693450
vt 0.002203 0.908638
vt 0.897797 0.743536
vt 0.804405 0.780406
vt 0.797797 0.917449
vt 0.795595 0.915246
vt 0.402203 0.002203
vt 0.397797 0.997797
vt 0.947797 0.693450
vt 0.004405 0.867363
vt 0.002203 0.778203
vt 0.895595 0.697855
vt 0.995595 0.697855
vt 0.847797 0.787014
vt 0.002203 0.784811
vt 0.002203 0.697855
vt 0.997797 0.700057
vt 0.952203 0.778203
vt 0.802203 0.821682
vt 0.797797 0.910841
vt 0.804405 0.823884
vt 0.397797 0.004405
vt 0.795595 0.002203
vt 0.997797 0.780406
vt 0.802203 0.734725
vt 0.004405 0.997797
vt 0.002203 0.995595
vt 0.852203 0.778203
vt 0.797797 0.873971
vt 0.854405 0.693450
vt 0.795595 0.871768
vt 0.852203 0.691247
vt 0.802203 0.697855
vt 0.897797 0.693450
vt 0.004405 0.780406
vt 0.002203 0.865160
vt 0.954405 0.780406
vt 0.845595 0.697855
vt 0.797797 0.693450
vt 0.802203 0.002203
vt 0.852203 0.734725
vt 0.952203 0.697855
vt 0.002203 0.958724
vt 0.895595 0.741333
vt 0.845595 0.784811
vt 0.404405 0.693450
vt 0.797797 0.954319
vt 0.002203 0.691247
vt 0.397797 0.960927
vt 0.395595 0.958724
vt 0.904405 0.693450
vt 0.847797 0.004405
vt 0.902203 0.691247
vt 0.845595 0.002203
vt 0.852203 0.697855
vt 0.897797 0.780406
vt 0.847797 0.780406
vt 0.802203 0.741333
vt 0.847797 0.823884
vt 0.852203 0.741333
vt 0.802203 0.784811
s 0
usemtl Material
f 8/34/1 2/6/1 9/44/1
f 17/93/2 8/35/2 16/86/2
f 10/52/3 4/19/3 17/94/3
f 18/98/4 1/1/4 11/56/4
f 14/76/5 9/45/5 13/67/5
f 7/29/6 14/77/6 15/81/6
f 5/23/1 8/36/1 1/2/1
f 9/46/1 6/26/1 7/30/1
f 3/11/1 1/3/1 8/37/1
f 7/31/1 3/12/1 9/47/1
f 12/61/7 13/68/7 20/106/7
f 15/82/8 3/13/8 7/32/8
f 18/99/9 8/38/9 5/24/9
f 3/14/10 11/57/10 1/4/10
f 2/7/11 13/69/11 9/48/11
f 8/39/1 4/20/1 2/8/1
f 17/95/2 4/21/2 8/40/2
f 10/53/3 2/9/3 4/22/3
f 18/100/4 5/25/4 1/5/4
f 14/78/5 6/27/5 9/49/5
f 7/33/6 6/28/6 14/79/6
f 15/83/8 12/62/8 3/15/8
f 18/101/9 16/87/9 8/41/9
f 3/16/10 12/63/10 11/58/10
f 2/10/11 10/54/11 13/70/11
f 12/64/7 15/84/7 13/71/7
f 15/85/7 14/80/7 13/72/7
f 13/73/7 10/55/7 17/96/7
f 18/102/7 11/59/7 16/88/7
f 11/60/7 12/65/7 16/89/7
f 13/74/7 17/97/7 16/90/7
f 8/42/1 9/50/1 19/103/1
f 9/51/1 3/17/1 19/104/1
f 3/18/1 8/43/1 19/105/1
f 13/75/7 16/91/7 20/107/7
f 16/92/7 12/66/7 20/108/7
