# Blender 3.3.1
# www.blender.org
mtllib fence.mtl
o Cube
v 0.505093 0.000000 -1.000000
v 0.505093 0.000000 1.000000
v -0.505092 0.000000 -1.000000
v -0.505092 0.000000 1.000000
v 0.075032 6.000000 -1.000000
v -0.075032 6.000000 -1.000000
v -0.075032 6.000000 1.000000
v 0.075032 6.000000 1.000000
v -0.505092 5.570269 1.000000
v -0.505092 5.570269 -1.000000
v 0.505093 5.570268 -1.000000
v 0.505093 5.570268 1.000000
v -1.419239 5.505025 1.000000
v -0.000000 6.919239 1.000000
v -1.419239 5.505025 -1.000000
v -0.000000 6.919239 -1.000000
v -0.994975 5.080761 1.000000
v -0.000000 6.074975 1.000000
v -0.994975 5.080761 -1.000000
v -0.000000 6.074975 -1.000000
v 1.419239 5.505025 1.000000
v 1.419239 5.505025 -1.000000
v 0.994975 5.080761 1.000000
v 0.994975 5.080761 -1.000000
vn -0.0000 1.0000 -0.0000
vn -0.0000 -0.0000 1.0000
vn -1.0000 -0.0000 -0.0000
vn -0.0000 -1.0000 -0.0000
vn 1.0000 -0.0000 -0.0000
vn -0.0000 -0.0000 -1.0000
vn -0.7068 0.7074 -0.0000
vn 0.7068 0.7074 -0.0000
vn -0.7059 0.7084 -0.0000
vn 0.7068 -0.7074 -0.0000
vn -0.7071 -0.7071 -0.0000
vn 0.7059 0.7084 -0.0000
vn -0.7068 -0.7074 -0.0000
vn 0.7071 -0.7071 -0.0000
vt 0.861967 0.249026
vt 0.471990 0.008687
vt 0.619357 0.008687
vt 0.601982 0.008687
vt 0.861967 0.471990
vt 0.249026 0.008687
vt 0.749350 0.249026
vt 0.008687 0.008687
vt 0.731975 0.008687
vt 0.489365 0.008687
vt 0.231651 0.008687
vt 0.749350 0.471990
vt 0.797294 0.008687
vt 0.667301 0.677579
vt 0.684031 0.677579
vt 0.814023 0.008687
vt 0.814023 0.231651
vt 0.537309 0.677579
vt 0.554038 0.677579
vt 0.797294 0.231651
vt 0.489365 0.629672
vt 0.231651 0.629672
vt 0.861967 0.231651
vt 0.008687 0.629672
vt 0.731975 0.629672
vt 0.861967 0.008687
vt 0.471990 0.629672
vt 0.619357 0.629672
vt 0.749350 0.008687
vt 0.249026 0.629672
vt 0.601982 0.629672
vt 0.749350 0.231651
vt 0.008687 0.963486
vt 0.954252 0.918710
vt 0.944015 0.471990
vt 0.879342 0.008687
vt 0.008687 0.805266
vt 0.953856 0.695350
vt 0.944015 0.249026
vt 0.231651 0.963486
vt 0.489365 0.694954
vt 0.712725 0.695350
vt 0.879342 0.231651
vt 0.231651 0.805266
vt 0.887363 0.918710
vt 0.249026 0.870010
vt 0.991313 0.471990
vt 0.973462 0.008687
vt 0.359948 0.870010
vt 0.887303 0.761903
vt 0.489365 0.761843
vt 0.249026 0.647047
vt 0.991313 0.249026
vt 0.973462 0.231651
vt 0.646172 0.761903
vt 0.359948 0.647047
vt 0.008687 0.647047
vt 0.730496 0.694954
vt 0.879342 0.249026
vt 0.879342 0.471990
vt 0.231651 0.647047
vt 0.713121 0.918710
vt 0.730496 0.761843
vt 0.470870 0.870010
vt 0.926640 0.249026
vt 0.470870 0.647047
vt 0.646232 0.918710
vt 0.926640 0.471990
s 0
usemtl Material
f 6/16/1 8/20/1 5/13/1
f 2/4/2 8/19/2 9/21/2
f 3/8/3 9/22/3 10/24/3
f 1/1/4 4/12/4 3/7/4
f 2/6/5 11/27/5 12/30/5
f 10/25/6 5/14/6 1/3/6
f 14/37/9 15/40/9 13/33/9
f 15/41/6 20/55/6 19/51/6
f 20/56/10 17/46/10 19/52/10
f 18/50/2 13/34/2 17/45/2
f 19/53/11 13/35/11 15/39/11
f 16/43/5 18/48/5 20/54/5
f 22/61/12 14/37/12 21/57/12
f 22/62/6 20/55/6 16/42/6
f 23/64/13 20/56/13 24/66/13
f 21/58/2 18/50/2 23/63/2
f 21/59/14 24/68/14 22/60/14
f 6/16/1 7/17/1 8/20/1
f 9/21/2 4/10/2 2/4/2
f 2/4/2 12/31/2 8/19/2
f 8/19/2 7/18/2 9/21/2
f 3/8/3 4/11/3 9/22/3
f 1/1/4 2/5/4 4/12/4
f 2/6/5 1/2/5 11/27/5
f 1/3/6 3/9/6 10/25/6
f 10/25/6 6/15/6 5/14/6
f 5/14/6 11/28/6 1/3/6
f 14/37/9 16/44/9 15/40/9
f 15/41/6 16/42/6 20/55/6
f 20/56/10 18/49/10 17/46/10
f 18/50/2 14/38/2 13/34/2
f 19/53/11 17/47/11 13/35/11
f 16/43/5 14/36/5 18/48/5
f 22/61/12 16/44/12 14/37/12
f 22/62/6 24/67/6 20/55/6
f 23/64/13 18/49/13 20/56/13
f 21/58/2 14/38/2 18/50/2
f 21/59/14 23/65/14 24/68/14
usemtl 
f 6/16/7 9/23/7 7/17/7
f 8/20/8 11/29/8 5/13/8
f 6/16/7 10/26/7 9/23/7
f 8/20/8 12/32/8 11/29/8
