# Blender 3.3.1
# www.blender.org
mtllib wall.mtl
o 球
v 0.000000 -0.000000 -0.539154
v 0.539154 -0.000000 0.000000
v -0.000000 -0.000000 0.539154
v 0.000000 1.000000 0.000000
v -0.539154 -0.000000 -0.000000
v 0.000000 -1.000000 0.000000
vn 0.6607 -0.3562 -0.6607
vn 0.6607 0.3562 -0.6607
vn 0.6607 -0.3562 0.6607
vn 0.6607 0.3562 0.6607
vn -0.6607 -0.3562 0.6607
vn -0.6607 0.3562 0.6607
vn -0.6607 -0.3562 -0.6607
vn -0.6607 0.3562 -0.6607
vt 0.750000 0.333333
vt 0.750000 0.666667
vt 0.500000 0.333333
vt 0.500000 0.666667
vt 0.250000 0.333333
vt 0.250000 0.666667
vt 0.625000 1.000000
vt 0.375000 1.000000
vt 0.125000 1.000000
vt 0.875000 1.000000
vt 0.000000 0.333333
vt 0.000000 0.666667
vt 1.000000 0.333333
vt 1.000000 0.666667
vt 0.625000 0.000000
vt 0.375000 0.000000
vt 0.125000 0.000000
vt 0.875000 0.000000
s 0
usemtl マテリアル
f 6/15/1 1/1/1 2/3/1
f 1/2/2 4/7/2 2/4/2
f 6/16/3 2/3/3 3/5/3
f 2/4/4 4/8/4 3/6/4
f 6/17/5 3/5/5 5/11/5
f 3/6/6 4/9/6 5/12/6
f 6/18/7 5/13/7 1/1/7
f 5/14/8 4/10/8 1/2/8
