# Blender v2.92.0 OBJ File: 'rat - コピー_new.blend'
# www.blender.org
mtllib rat.mtl
o ICO球
v 0.000000 -0.630898 0.024503
v 0.723607 -0.078117 0.946610
v -0.276388 -0.078118 2.048227
v -0.894426 -0.078113 0.024500
v -0.276388 -0.078118 -0.850649
v 0.723607 -0.078117 -0.525725
v 0.276388 0.448029 2.048227
v -0.723607 0.447220 0.946610
v -0.723607 0.456892 -0.525725
v 0.140128 0.417435 -0.874806
v 0.894426 0.454743 0.024500
v 0.000000 1.000000 0.024503
v -0.162456 -0.481552 1.007543
v 0.425323 -0.481552 0.648003
v 0.262869 -0.156635 1.923872
v 0.850648 -0.156634 0.005289
v 0.425323 -0.481552 -0.309011
v -0.525730 -0.481549 0.005289
v -0.688189 -0.156634 1.007540
v -0.162456 -0.481552 -0.499995
v -0.688189 -0.156634 -0.499997
v 0.262869 -0.156635 -0.809012
v 0.951058 0.194216 0.648006
v 0.951058 0.211218 -0.309013
v 0.000000 0.129937 2.548864
v 0.587786 0.178586 1.923887
v -0.951058 0.146349 0.648006
v -0.587786 0.205577 1.923887
v -0.587786 0.211216 -0.809016
v -0.951058 0.204762 -0.309013
v 0.587786 0.211217 -0.809016
v 0.007615 0.299647 -0.946412
v 0.688189 0.525736 1.007540
v -0.262869 0.526546 1.923872
v -0.850648 0.526343 0.005289
v -0.118416 0.451171 -0.854843
v 0.688189 0.527258 -0.499997
v 0.162456 0.850654 1.007543
v 0.525730 0.850652 0.005289
v -0.425323 0.850654 0.648003
v -0.425323 0.850654 -0.309011
v 0.162456 0.850654 -0.499995
v 0.422079 0.236830 1.782559
v 0.143575 0.517718 1.781833
v 0.733296 0.641997 1.768883
v 0.551486 0.825363 1.768409
v 0.143575 0.517529 1.708748
v 0.206399 0.517357 1.745870
v 0.422079 0.236642 1.709474
v 0.422347 0.299562 1.746433
v 0.551486 0.825240 1.720699
v 0.551312 0.784290 1.745038
v 0.734235 0.641989 1.721075
v 0.692284 0.642111 1.745405
v -0.156429 0.517803 1.832779
v -0.448182 0.250704 1.832054
v -0.548882 0.844906 1.819104
v -0.739342 0.670542 1.818630
v -0.447994 0.250697 1.758969
v -0.445320 0.313464 1.796090
v -0.156240 0.517795 1.759695
v -0.219099 0.520568 1.796653
v -0.739218 0.670537 1.770920
v -0.698308 0.668731 1.795258
v -0.548837 0.845844 1.771296
v -0.550629 0.803931 1.795626
v 0.000000 0.211219 -1.000000
v 0.276388 0.456894 -0.850649
v -0.262869 0.527259 -0.809012
v 0.009636 0.964612 -2.043989
v 0.142149 1.082400 -1.972384
v -0.116394 1.116136 -1.952421
vt 0.477998 0.474254
vt 0.415224 0.349849
vt 0.529214 0.299228
vt 0.362011 0.279353
vt 0.316835 0.445891
vt 0.568438 0.485610
vt 0.490768 0.567217
vt 0.390818 0.519974
vt 0.308680 0.320089
vt 0.568438 0.106138
vt 0.470584 0.118125
vt 0.527979 0.005390
vt 0.671614 0.158304
vt 0.701958 0.335607
vt 0.630995 0.270924
vt 0.103687 0.762023
vt 0.088470 0.848972
vt 0.032985 0.793254
vt 0.181478 0.615224
vt 0.157487 0.682700
vt 0.121364 0.604205
vt 0.406298 0.101910
vt 0.725104 0.522102
vt 0.715917 0.611087
vt 0.653010 0.500260
vt 0.621700 0.097498
vt 0.075639 0.690492
vt 0.951392 0.570368
vt 0.883932 0.608187
vt 0.932937 0.526680
vt 0.931666 0.088625
vt 0.912932 0.278095
vt 0.818959 0.257097
vt 0.088444 0.247313
vt 0.200665 0.090097
vt 0.142303 0.294116
vt 0.045433 0.502908
vt 0.040222 0.403643
vt 0.114193 0.460491
vt 0.212968 0.593425
vt 0.120410 0.565174
vt 0.212667 0.513695
vt 0.902964 0.458403
vt 0.854466 0.544828
vt 0.809941 0.441441
vt 0.291837 0.438215
vt 0.202937 0.411335
vt 0.297900 0.543818
vt 0.256948 0.251614
vt 0.297900 0.089799
vt 0.818308 0.601333
vt 0.192258 0.830654
vt 0.231055 0.605711
vt 0.231055 0.832160
vt 0.005390 0.718455
vt 0.055189 0.566071
vt 0.005390 0.467029
vt 0.579218 0.153231
vt 0.032080 0.302863
vt 0.135325 0.091177
vt 0.373932 0.614719
vt 0.373932 0.722235
vt 0.308680 0.665575
vt 0.255928 0.005390
vt 0.994610 0.125648
vt 0.972569 0.357890
vt 0.057179 0.634959
vt 0.509365 0.717205
vt 0.509365 0.800666
vt 0.467143 0.746026
vt 0.652113 0.005390
vt 0.701958 0.062632
vt 0.602804 0.323320
vt 0.978342 0.005390
vt 0.994610 0.481470
vt 0.400889 0.603938
vt 0.324463 0.541084
vt 0.181478 0.787607
vt 0.799161 0.061138
vt 0.767720 0.154186
vt 0.799161 0.334113
vt 0.530745 0.622755
vt 0.526363 0.706425
vt 0.521110 0.701165
vt 0.475188 0.622755
vt 0.538793 0.614719
vt 0.479590 0.706425
vt 0.467143 0.614719
vt 0.484842 0.701165
vt 0.670910 0.622003
vt 0.731104 0.710552
vt 0.659522 0.710552
vt 0.441061 0.783787
vt 0.454132 0.717209
vt 0.454132 0.782547
vt 0.397945 0.717318
vt 0.384712 0.786011
vt 0.384712 0.717209
vt 0.532862 0.718592
vt 0.520145 0.796534
vt 0.524561 0.717205
vt 0.668183 0.766028
vt 0.659541 0.721358
vt 0.668183 0.721332
vt 0.392747 0.698381
vt 0.397137 0.614719
vt 0.402382 0.619971
vt 0.448303 0.698381
vt 0.384712 0.706429
vt 0.443911 0.614719
vt 0.456362 0.706429
vt 0.438649 0.619971
vt 0.591518 0.622002
vt 0.648742 0.713736
vt 0.579218 0.713736
vt 0.780318 0.707478
vt 0.791485 0.622025
vt 0.793556 0.707478
vt 0.562643 0.717508
vt 0.549573 0.777422
vt 0.549573 0.718714
vt 0.560253 0.614719
vt 0.549573 0.706727
vt 0.551613 0.614719
vt 0.687254 0.760736
vt 0.678963 0.721332
vt 0.687254 0.722755
vt 0.053236 0.658645
vt 0.062087 0.685270
vt 0.028406 0.698677
vt 0.408726 0.746356
vt 0.430281 0.717209
vt 0.430281 0.764316
vt 0.241835 0.604205
vt 0.287292 0.779974
vt 0.241835 0.770677
vt 0.769538 0.634824
vt 0.741884 0.804008
vt 0.741884 0.621867
vt 0.192258 0.604205
vt 0.717743 0.621867
vt 0.445565 0.717850
vt 0.397945 0.786119
vt 0.532862 0.798659
vt 0.659522 0.766113
vt 0.637011 0.621867
vt 0.782825 0.621867
vt 0.562643 0.776215
vt 0.562808 0.706727
vt 0.678984 0.759320
vt 0.287292 0.613501
vt 0.769538 0.816965
vn 0.1014 -0.9809 0.1658
vn 0.7364 -0.6587 0.1543
vn -0.2753 -0.9562 0.0998
vn -0.2620 -0.9465 -0.1884
vn 0.0976 -0.9488 -0.3004
vn 0.8358 -0.5262 0.1567
vn -0.0404 -0.9146 0.4024
vn -0.8189 -0.5597 0.1271
vn -0.5232 -0.4599 -0.7174
vn 0.5207 -0.4599 -0.7193
vn 0.8580 -0.4548 0.2387
vn -0.6665 -0.4824 0.5684
vn -0.9774 -0.2109 -0.0129
vn -0.3033 -0.1921 -0.9333
vn 0.7940 -0.1921 -0.5768
vn 0.5074 0.8209 0.2621
vn -0.6735 0.6914 0.2614
vn -0.6983 0.6691 -0.2546
vn 0.0301 0.6696 -0.7421
vn 0.7228 0.6638 -0.1924
vn 0.2620 0.9465 -0.1884
vn 0.4903 0.7971 -0.3525
vn 0.4119 0.6696 -0.6181
vn -0.0976 0.9488 -0.3004
vn -0.1870 0.7960 -0.5756
vn -0.4605 0.6696 -0.5827
vn -0.3313 0.9435 0.0000
vn -0.6063 0.7952 0.0000
vn -0.7362 0.6588 0.1547
vn -0.1014 0.9809 0.1658
vn -0.1604 0.9516 0.2622
vn 0.0540 0.9332 0.3552
vn 0.2753 0.9562 0.0998
vn 0.5164 0.8356 0.1872
vn 0.7254 0.6806 0.1030
vn 0.8131 0.5272 -0.2468
vn 0.7710 0.3028 -0.5602
vn 0.5014 0.5182 -0.6929
vn -0.8147 -0.4953 -0.3016
vn -0.2945 0.3028 -0.9064
vn -0.5040 0.5182 -0.6910
vn -0.8178 0.5120 -0.2626
vn -0.9591 0.2826 0.0172
vn -0.8565 0.4917 0.1569
vn -0.6779 0.6862 0.2639
vn -0.5630 0.5700 0.5985
vn -0.0007 0.8442 0.5360
vn 0.6897 0.6488 0.3214
vn 0.8728 0.4170 0.2536
vn 0.8440 0.5178 0.1397
vn 0.3011 0.2246 -0.9268
vn 0.2981 -0.2633 -0.9175
vn 0.0016 -0.4599 -0.8880
vn -0.7902 0.2219 -0.5713
vn -0.7784 -0.2655 -0.5689
vn -0.8411 -0.4745 -0.2597
vn -0.8721 0.4328 0.2282
vn -0.8616 -0.4326 0.2654
vn -0.7045 -0.6303 0.3263
vn 0.6357 0.4429 0.6323
vn 0.6100 -0.5912 0.5276
vn 0.6910 -0.6698 0.2720
vn 0.9752 0.2214 0.0039
vn 0.9637 -0.2671 -0.0047
vn 0.8449 -0.4616 -0.2704
vn 0.4713 -0.6617 -0.5831
vn 0.1876 -0.7947 -0.5773
vn -0.0385 -0.6617 -0.7488
vn -0.4089 -0.6617 -0.6284
vn -0.4918 -0.7957 -0.3536
vn -0.7294 -0.6576 -0.1884
vn -0.7321 -0.6738 0.0998
vn -0.5164 -0.8356 0.1872
vn -0.5073 -0.8208 0.2627
vn 0.7015 -0.6613 -0.2656
vn 0.6071 -0.7947 0.0000
vn 0.3313 -0.9435 0.0000
vn -0.0538 -0.9330 0.3558
vn 0.1607 -0.9514 0.2627
vn 0.6732 -0.6915 0.2618
vn -0.4616 0.3661 0.8080
vn 0.4468 0.4450 0.7761
vn 0.4205 -0.5252 0.7398
vn -0.4468 -0.4410 0.7784
vn 0.0179 0.0151 -0.9997
vn 0.0002 0.0028 1.0000
vn 0.7931 -0.6091 0.0016
vn -0.7101 -0.7041 0.0018
vn -0.6022 0.7984 -0.0021
vn 0.7101 0.7041 -0.0018
vn -0.3842 -0.4466 0.8080
vn -0.4269 0.4642 0.7761
vn 0.5416 0.3992 0.7398
vn 0.4229 -0.4640 0.7784
vn -0.0144 0.0185 -0.9997
vn -0.0028 0.0003 1.0000
vn 0.6402 0.7682 0.0016
vn 0.6753 -0.7376 0.0018
vn -0.8217 -0.5699 -0.0021
vn -0.6752 0.7376 -0.0018
vn 0.0016 0.5182 -0.8553
vn 0.1499 0.8455 0.5125
vn 0.7209 -0.5933 -0.3581
vn -0.5234 0.4269 0.7374
vn 0.3599 -0.4626 0.8102
vn 0.0173 0.0153 -0.9997
vn 0.7920 -0.6103 0.0157
vn 0.7080 0.7061 0.0138
vn -0.4474 -0.5060 0.7374
vn 0.4765 0.3412 0.8102
vn -0.0145 0.0179 -0.9997
vn 0.6414 0.7670 0.0157
vn 0.6752 -0.7376 0.0018
vn -0.6773 0.7355 0.0138
usemtl マテリアル
s off
f 1/1/1 14/2/1 13/3/1
f 2/4/2 14/2/2 16/5/2
f 1/1/3 13/3/3 18/6/3
f 1/1/4 18/6/4 20/7/4
f 1/1/5 20/7/5 17/8/5
f 2/4/6 16/5/6 23/9/6
f 3/10/7 15/11/7 25/12/7
f 4/13/8 19/14/8 27/15/8
f 5/16/9 21/17/9 29/18/9
f 6/19/10 22/20/10 31/21/10
f 2/4/11 23/9/11 26/22/11
f 3/23/12 25/24/12 28/25/12
f 4/13/13 27/15/13 30/26/13
f 5/16/14 29/18/14 67/27/14
f 6/28/15 31/29/15 24/30/15
f 7/31/16 33/32/16 38/33/16
f 8/34/17 34/35/17 40/36/17
f 9/37/18 35/38/18 41/39/18
f 68/40/19 69/41/19 42/42/19
f 11/43/20 37/44/20 39/45/20
f 39/46/21 42/42/21 12/47/21
f 39/46/22 37/48/22 42/42/22
f 37/48/23 68/40/23 42/42/23
f 42/42/24 41/39/24 12/47/24
f 42/42/25 69/41/25 41/39/25
f 69/41/26 9/37/26 41/39/26
f 41/39/27 40/36/27 12/47/27
f 41/39/28 35/38/28 40/36/28
f 35/38/29 8/34/29 40/36/29
f 40/36/30 38/49/30 12/47/30
f 40/36/31 34/35/31 38/49/31
f 34/35/32 7/50/32 38/49/32
f 38/49/33 39/46/33 12/47/33
f 38/33/34 33/32/34 39/45/34
f 33/32/35 11/43/35 39/45/35
f 24/30/36 37/44/36 11/43/36
f 24/30/37 31/29/37 37/44/37
f 31/29/38 68/51/38 37/44/38
f 36/52/39 70/53/39 32/54/39
f 67/27/40 29/18/40 69/55/40
f 29/56/41 9/37/41 69/41/41
f 30/57/42 35/38/42 9/37/42
f 30/26/43 27/15/43 35/58/43
f 27/59/44 8/34/44 35/38/44
f 28/60/45 34/35/45 8/34/45
f 28/61/46 25/62/46 34/63/46
f 25/64/47 7/50/47 34/35/47
f 26/65/48 33/32/48 7/31/48
f 26/65/49 23/66/49 33/32/49
f 23/66/50 11/43/50 33/32/50
f 31/21/51 67/27/51 68/67/51
f 31/21/52 22/20/52 67/27/52
f 22/20/53 5/16/53 67/27/53
f 29/68/54 30/69/54 9/70/54
f 29/71/55 21/72/55 30/26/55
f 21/72/56 4/13/56 30/26/56
f 27/15/57 28/25/57 8/73/57
f 27/15/58 19/14/58 28/25/58
f 19/14/59 3/23/59 28/25/59
f 25/74/60 26/65/60 7/31/60
f 25/12/61 15/11/61 26/22/61
f 15/11/62 2/4/62 26/22/62
f 23/66/63 24/30/63 11/43/63
f 23/66/64 16/75/64 24/30/64
f 16/75/65 6/28/65 24/30/65
f 17/8/66 22/76/66 6/77/66
f 17/8/67 20/7/67 22/76/67
f 20/78/68 5/16/68 22/20/68
f 20/78/69 21/17/69 5/16/69
f 20/79/70 18/80/70 21/72/70
f 18/80/71 4/13/71 21/72/71
f 18/80/72 19/14/72 4/13/72
f 18/80/73 13/81/73 19/14/73
f 13/81/74 3/23/74 19/14/74
f 16/5/75 17/8/75 6/77/75
f 16/5/76 14/2/76 17/8/76
f 14/2/77 1/1/77 17/8/77
f 13/3/78 15/11/78 3/10/78
f 13/3/79 14/2/79 15/11/79
f 14/2/80 2/4/80 15/11/80
f 50/82/81 45/83/81 54/84/81
f 48/85/82 43/86/82 50/82/82
f 48/85/83 46/87/83 44/88/83
f 52/89/84 45/83/84 46/87/84
f 51/90/85 49/91/85 47/92/85
f 52/89/86 50/82/86 54/84/86
f 49/93/87 45/94/87 43/95/87
f 47/96/88 43/97/88 44/98/88
f 51/99/89 44/100/89 46/101/89
f 45/102/90 51/103/90 46/104/90
f 62/105/91 57/106/91 66/107/91
f 60/108/92 55/109/92 62/105/92
f 60/108/93 58/110/93 56/111/93
f 64/112/94 57/106/94 58/110/94
f 63/113/95 61/114/95 59/115/95
f 64/112/96 62/105/96 66/107/96
f 61/116/97 57/117/97 55/118/97
f 59/119/98 55/120/98 56/121/98
f 63/122/99 56/123/99 58/124/99
f 57/125/100 63/126/100 58/127/100
f 10/128/101 67/27/101 32/129/101
f 36/130/101 68/67/101 10/128/101
f 36/130/101 67/27/101 69/55/101
f 70/131/101 72/132/101 71/133/101
f 36/134/102 71/135/102 72/136/102
f 32/137/103 71/138/103 10/139/103
f 36/52/39 72/140/39 70/53/39
f 50/82/104 43/86/104 45/83/104
f 48/85/82 44/88/82 43/86/82
f 48/85/105 52/89/105 46/87/105
f 52/89/84 54/84/84 45/83/84
f 51/90/106 53/141/106 49/91/106
f 52/89/86 48/85/86 50/82/86
f 49/93/107 53/142/107 45/94/107
f 47/96/88 49/143/88 43/97/88
f 51/99/89 47/144/89 44/100/89
f 45/102/108 53/145/108 51/103/108
f 62/105/109 55/109/109 57/106/109
f 60/108/92 56/111/92 55/109/92
f 60/108/110 64/112/110 58/110/110
f 64/112/94 66/107/94 57/106/94
f 63/113/111 65/146/111 61/114/111
f 64/112/96 60/108/96 62/105/96
f 61/116/112 65/147/112 57/117/112
f 59/119/113 61/148/113 55/120/113
f 63/122/99 59/149/99 56/123/99
f 57/125/114 65/150/114 63/126/114
f 10/128/101 68/67/101 67/27/101
f 36/130/101 69/55/101 68/67/101
f 36/130/101 32/129/101 67/27/101
f 36/134/102 10/151/102 71/135/102
f 32/137/103 70/152/103 71/138/103
