# Blender 3.3.1
# www.blender.org
mtllib MomijiLeave.mtl
o 平面
v 0.026722 0.000000 0.961769
v 0.026722 0.000000 -0.851836
v 0.000000 0.000000 0.961769
v 0.000000 0.000000 -0.961769
v 0.048420 0.000000 -0.742348
v 0.074952 0.000000 -0.768880
v 0.061686 0.000000 -0.678672
v 0.090871 0.000000 -0.734389
v 0.085564 0.000000 -0.567239
v 0.143934 0.000000 -0.641528
v 0.109443 0.000000 -0.421315
v 0.149240 0.000000 -0.455806
v 0.101483 0.000000 -0.084363
v 0.308430 0.000000 -0.402743
v 0.300471 0.000000 -0.328454
v 0.395985 0.000000 -0.524788
v 0.409251 0.000000 -0.466419
v 0.579053 0.000000 -0.713163
v 0.480886 0.000000 -0.423968
v 0.552521 0.000000 -0.469072
v 0.457008 0.000000 -0.328454
v 0.512724 0.000000 -0.360292
v 0.440448 0.000000 -0.140079
v 0.366800 0.000000 -0.041912
v 0.528643 0.000000 -0.089669
v 0.539256 0.000000 -0.036606
v 0.679873 0.000000 -0.132120
v 0.682527 0.000000 -0.087016
v 0.929271 0.000000 -0.155998
v 0.746203 0.000000 -0.028646
v 0.804572 0.000000 -0.012728
v 0.637423 0.000000 0.053602
v 0.677220 0.000000 0.069521
v 0.504765 0.000000 0.130543
v 0.555175 0.000000 0.146462
v 0.433129 0.000000 0.202179
v 0.252714 0.000000 0.215445
v 0.480886 0.000000 0.289733
v 0.693139 0.000000 0.438311
v 0.464967 0.000000 0.446270
v 0.499458 0.000000 0.499333
v 0.411904 0.000000 0.435657
v 0.430476 0.000000 0.501987
v 0.313737 0.000000 0.411779
v 0.377413 0.000000 0.570969
v 0.202304 0.000000 0.467495
v 0.167813 0.000000 0.501987
v 0.098830 0.000000 0.366675
v 0.026722 0.000000 0.262060
v 0.026722 0.005432 0.961769
v 0.026722 0.005432 -0.851836
v 0.000000 0.005432 0.961769
v 0.000000 0.005432 -0.961769
v 0.048420 0.005432 -0.742348
v 0.074952 0.005432 -0.768880
v 0.061686 0.005432 -0.678672
v 0.090871 0.005432 -0.734389
v 0.085564 0.005432 -0.567239
v 0.143934 0.005432 -0.641528
v 0.109443 0.005432 -0.421315
v 0.149240 0.005432 -0.455806
v 0.101483 0.005432 -0.084363
v 0.308430 0.005432 -0.402743
v 0.300471 0.005432 -0.328454
v 0.395985 0.005432 -0.524788
v 0.409251 0.005432 -0.466419
v 0.579053 0.005432 -0.713163
v 0.480886 0.005432 -0.423968
v 0.552521 0.005432 -0.469072
v 0.457008 0.005432 -0.328454
v 0.512724 0.005432 -0.360292
v 0.440448 0.005432 -0.140079
v 0.366800 0.005432 -0.041912
v 0.528643 0.005432 -0.089669
v 0.539256 0.005432 -0.036606
v 0.679873 0.005432 -0.132120
v 0.682527 0.005432 -0.087016
v 0.929271 0.005432 -0.155998
v 0.746203 0.005432 -0.028646
v 0.804572 0.005432 -0.012728
v 0.637423 0.005432 0.053602
v 0.677220 0.005432 0.069521
v 0.504765 0.005432 0.130543
v 0.555175 0.005432 0.146462
v 0.433129 0.005432 0.202179
v 0.252714 0.005432 0.215445
v 0.480886 0.005432 0.289733
v 0.693139 0.005432 0.438311
v 0.464967 0.005432 0.446270
v 0.499458 0.005432 0.499333
v 0.411904 0.005432 0.435657
v 0.430476 0.005432 0.501987
v 0.313737 0.005432 0.411779
v 0.377413 0.005432 0.570969
v 0.202304 0.005432 0.467495
v 0.167813 0.005432 0.501987
v 0.098830 0.005432 0.366675
v 0.026722 0.005432 0.262060
v -0.026722 0.000000 0.961769
v -0.026722 0.000000 -0.851836
v -0.048420 0.000000 -0.742348
v -0.074952 0.000000 -0.768880
v -0.061686 0.000000 -0.678672
v -0.090871 0.000000 -0.734389
v -0.085564 0.000000 -0.567239
v -0.143934 0.000000 -0.641528
v -0.109443 0.000000 -0.421315
v -0.149240 0.000000 -0.455806
v -0.101483 0.000000 -0.084363
v -0.308430 0.000000 -0.402743
v -0.300471 0.000000 -0.328454
v -0.395985 0.000000 -0.524788
v -0.409251 0.000000 -0.466419
v -0.579053 0.000000 -0.713163
v -0.480886 0.000000 -0.423968
v -0.552521 0.000000 -0.469072
v -0.457008 0.000000 -0.328454
v -0.512724 0.000000 -0.360292
v -0.440448 0.000000 -0.140079
v -0.366800 0.000000 -0.041912
v -0.528643 0.000000 -0.089669
v -0.539256 0.000000 -0.036606
v -0.679873 0.000000 -0.132120
v -0.682527 0.000000 -0.087016
v -0.929271 0.000000 -0.155998
v -0.746203 0.000000 -0.028646
v -0.804572 0.000000 -0.012728
v -0.637423 0.000000 0.053602
v -0.677220 0.000000 0.069521
v -0.504765 0.000000 0.130543
v -0.555175 0.000000 0.146462
v -0.433129 0.000000 0.202179
v -0.252714 0.000000 0.215445
v -0.480886 0.000000 0.289733
v -0.693139 0.000000 0.438311
v -0.464967 0.000000 0.446270
v -0.499458 0.000000 0.499333
v -0.411904 0.000000 0.435657
v -0.430476 0.000000 0.501987
v -0.313737 0.000000 0.411779
v -0.377413 0.000000 0.570969
v -0.202304 0.000000 0.467495
v -0.167813 0.000000 0.501987
v -0.098830 0.000000 0.366675
v -0.026722 0.000000 0.262060
v -0.026722 0.005432 0.961769
v -0.026722 0.005432 -0.851836
v -0.048420 0.005432 -0.742348
v -0.074952 0.005432 -0.768880
v -0.061686 0.005432 -0.678672
v -0.090871 0.005432 -0.734389
v -0.085564 0.005432 -0.567239
v -0.143934 0.005432 -0.641528
v -0.109443 0.005432 -0.421315
v -0.149240 0.005432 -0.455806
v -0.101483 0.005432 -0.084363
v -0.308430 0.005432 -0.402743
v -0.300471 0.005432 -0.328454
v -0.395985 0.005432 -0.524788
v -0.409251 0.005432 -0.466419
v -0.579053 0.005432 -0.713163
v -0.480886 0.005432 -0.423968
v -0.552521 0.005432 -0.469072
v -0.457008 0.005432 -0.328454
v -0.512724 0.005432 -0.360292
v -0.440448 0.005432 -0.140079
v -0.366800 0.005432 -0.041912
v -0.528643 0.005432 -0.089669
v -0.539256 0.005432 -0.036606
v -0.679873 0.005432 -0.132120
v -0.682527 0.005432 -0.087016
v -0.929271 0.005432 -0.155998
v -0.746203 0.005432 -0.028646
v -0.804572 0.005432 -0.012728
v -0.637423 0.005432 0.053602
v -0.677220 0.005432 0.069521
v -0.504765 0.005432 0.130543
v -0.555175 0.005432 0.146462
v -0.433129 0.005432 0.202179
v -0.252714 0.005432 0.215445
v -0.480886 0.005432 0.289733
v -0.693139 0.005432 0.438311
v -0.464967 0.005432 0.446270
v -0.499458 0.005432 0.499333
v -0.411904 0.005432 0.435657
v -0.430476 0.005432 0.501987
v -0.313737 0.005432 0.411779
v -0.377413 0.005432 0.570969
v -0.202304 0.005432 0.467495
v -0.167813 0.005432 0.501987
v -0.098830 0.005432 0.366675
v -0.026722 0.005432 0.262060
vn -0.0000 -1.0000 -0.0000
vn -0.0000 1.0000 -0.0000
vn 0.9983 -0.0000 -0.0587
vn 0.9943 -0.0000 0.1065
vn -0.5882 -0.0000 0.8087
vn -0.2692 -0.0000 -0.9631
vn -0.8992 -0.0000 -0.4375
vn 0.9630 -0.0000 -0.2696
vn 0.5711 -0.0000 0.8209
vn 0.9751 -0.0000 -0.2216
vn -0.6114 -0.0000 0.7913
vn -0.0000 -0.0000 1.0000
vn 0.2631 -0.0000 -0.9648
vn -0.8238 -0.0000 -0.5669
vn 0.9285 -0.0000 -0.3714
vn 0.9717 -0.0000 -0.2362
vn 0.3688 -0.0000 0.9295
vn 0.9469 -0.0000 0.3214
vn -0.5087 -0.0000 0.8609
vn -0.7071 -0.0000 -0.7071
vn 0.3714 -0.0000 -0.9285
vn -0.5328 -0.0000 -0.8462
vn 0.7071 -0.0000 0.7071
vn 0.9894 -0.0000 0.1455
vn 0.3336 -0.0000 0.9427
vn 0.8272 -0.0000 0.5619
vn -0.8909 -0.0000 0.4542
vn -0.8858 -0.0000 -0.4640
vn 0.3011 -0.0000 -0.9536
vn -0.4961 -0.0000 -0.8682
vn -0.8234 -0.0000 0.5675
vn 0.9995 -0.0000 0.0317
vn 0.4153 -0.0000 0.9097
vn 0.9501 -0.0000 0.3118
vn 0.9809 -0.0000 -0.1944
vn -0.7863 -0.0000 -0.6178
vn 0.0733 -0.0000 0.9973
vn 0.7999 -0.0000 0.6001
vn 1.0000 -0.0000 -0.0000
vn 0.9880 -0.0000 0.1547
vn 0.3096 -0.0000 -0.9509
vn -0.2830 -0.0000 -0.9591
vn -0.6549 -0.0000 -0.7557
vn 0.5735 -0.0000 -0.8192
vn 0.9806 -0.0000 -0.1961
vn 0.9918 -0.0000 0.1275
vn 0.0349 -0.0000 0.9994
vn -0.5619 -0.0000 -0.8272
vn -0.8384 -0.0000 -0.5450
vn 0.8384 -0.0000 -0.5450
vn -0.9983 -0.0000 -0.0587
vn -0.9943 -0.0000 0.1065
vn 0.5882 -0.0000 0.8087
vn 0.2692 -0.0000 -0.9631
vn 0.8992 -0.0000 -0.4375
vn -0.9630 -0.0000 -0.2696
vn -0.5711 -0.0000 0.8209
vn -0.9751 -0.0000 -0.2216
vn 0.6114 -0.0000 0.7913
vn -0.2631 -0.0000 -0.9648
vn 0.8238 -0.0000 -0.5669
vn -0.9285 -0.0000 -0.3714
vn -0.9717 -0.0000 -0.2362
vn -0.3688 -0.0000 0.9295
vn -0.9469 -0.0000 0.3214
vn 0.5087 -0.0000 0.8609
vn 0.7071 -0.0000 -0.7071
vn -0.3714 -0.0000 -0.9285
vn 0.5328 -0.0000 -0.8462
vn -0.7071 -0.0000 0.7071
vn -0.9894 -0.0000 0.1455
vn -0.3336 -0.0000 0.9427
vn -0.8272 -0.0000 0.5619
vn 0.8909 -0.0000 0.4542
vn 0.8858 -0.0000 -0.4640
vn -0.3011 -0.0000 -0.9536
vn 0.4961 -0.0000 -0.8682
vn 0.8234 -0.0000 0.5675
vn -0.9995 -0.0000 0.0317
vn -0.4153 -0.0000 0.9097
vn -0.9501 -0.0000 0.3118
vn -0.9809 -0.0000 -0.1944
vn 0.7863 -0.0000 -0.6178
vn -0.0733 -0.0000 0.9973
vn -0.7999 -0.0000 0.6001
vn -1.0000 -0.0000 -0.0000
vn -0.9880 -0.0000 0.1547
vn -0.3096 -0.0000 -0.9509
vn 0.2830 -0.0000 -0.9591
vn 0.6549 -0.0000 -0.7557
vn -0.5735 -0.0000 -0.8192
vn -0.9806 -0.0000 -0.1961
vn -0.9918 -0.0000 0.1275
vn -0.0349 -0.0000 0.9994
vn 0.5619 -0.0000 -0.8272
vt 0.030832 0.002203
vt 0.030832 0.940898
vt 0.002203 0.002203
vt 0.002203 0.997797
vt 0.054079 0.884228
vt 0.082504 0.897961
vt 0.068291 0.851271
vt 0.099559 0.880109
vt 0.093874 0.793595
vt 0.156410 0.832045
vt 0.119457 0.718066
vt 0.162095 0.735919
vt 0.110929 0.543665
vt 0.332646 0.708454
vt 0.324119 0.670003
vt 0.426450 0.771623
vt 0.440662 0.741411
vt 0.622584 0.869123
vt 0.517411 0.719440
vt 0.594159 0.742785
vt 0.491828 0.670003
vt 0.551521 0.686482
vt 0.474086 0.572503
vt 0.395182 0.521693
vt 0.568576 0.546412
vt 0.579946 0.518947
vt 0.730600 0.568383
vt 0.733442 0.545038
vt 0.997797 0.580742
vt 0.801663 0.514827
vt 0.864199 0.506588
vt 0.685119 0.472257
vt 0.727757 0.464017
vt 0.542993 0.432433
vt 0.597001 0.424193
vt 0.466245 0.395355
vt 0.272953 0.388489
vt 0.517411 0.350038
vt 0.744812 0.273137
vt 0.500355 0.269017
vt 0.537308 0.241552
vt 0.443505 0.274510
vt 0.463402 0.240179
vt 0.338331 0.286869
vt 0.406552 0.204475
vt 0.218945 0.258031
vt 0.181992 0.240179
vt 0.108087 0.310214
vt 0.030832 0.364362
vt 0.030832 0.002203
vt 0.030832 0.940898
vt 0.002203 0.002203
vt 0.002203 0.997797
vt 0.054079 0.884228
vt 0.082504 0.897961
vt 0.068291 0.851271
vt 0.099559 0.880109
vt 0.093874 0.793595
vt 0.156410 0.832045
vt 0.119457 0.718066
vt 0.162095 0.735919
vt 0.110929 0.543665
vt 0.332646 0.708454
vt 0.324119 0.670003
vt 0.426450 0.771623
vt 0.440662 0.741411
vt 0.622584 0.869123
vt 0.517411 0.719440
vt 0.594159 0.742785
vt 0.491828 0.670003
vt 0.551521 0.686482
vt 0.474086 0.572503
vt 0.395182 0.521693
vt 0.568576 0.546412
vt 0.579946 0.518947
vt 0.730600 0.568383
vt 0.733442 0.545038
vt 0.997797 0.580742
vt 0.801663 0.514827
vt 0.864199 0.506588
vt 0.685119 0.472257
vt 0.727757 0.464017
vt 0.542993 0.432433
vt 0.597001 0.424193
vt 0.466245 0.395355
vt 0.272953 0.388489
vt 0.517411 0.350038
vt 0.744812 0.273137
vt 0.500355 0.269017
vt 0.537308 0.241552
vt 0.443505 0.274510
vt 0.463402 0.240179
vt 0.338331 0.286869
vt 0.406552 0.204475
vt 0.218945 0.258031
vt 0.181992 0.240179
vt 0.108087 0.310214
vt 0.030832 0.364362
vt 0.030832 0.002203
vt 0.030832 0.940898
vt 0.054079 0.884228
vt 0.082504 0.897961
vt 0.068291 0.851271
vt 0.099559 0.880109
vt 0.093874 0.793595
vt 0.156410 0.832045
vt 0.119457 0.718066
vt 0.162095 0.735919
vt 0.110929 0.543665
vt 0.332646 0.708454
vt 0.324119 0.670003
vt 0.426450 0.771623
vt 0.440662 0.741411
vt 0.622584 0.869123
vt 0.517411 0.719440
vt 0.594159 0.742785
vt 0.491828 0.670003
vt 0.551521 0.686482
vt 0.474086 0.572503
vt 0.395182 0.521693
vt 0.568576 0.546412
vt 0.579946 0.518947
vt 0.730600 0.568383
vt 0.733442 0.545038
vt 0.997797 0.580742
vt 0.801663 0.514827
vt 0.864199 0.506588
vt 0.685119 0.472257
vt 0.727757 0.464017
vt 0.542993 0.432433
vt 0.597001 0.424193
vt 0.466245 0.395355
vt 0.272953 0.388489
vt 0.517411 0.350038
vt 0.744812 0.273137
vt 0.500355 0.269017
vt 0.537308 0.241552
vt 0.443505 0.274510
vt 0.463402 0.240179
vt 0.338331 0.286869
vt 0.406552 0.204475
vt 0.218945 0.258031
vt 0.181992 0.240179
vt 0.108087 0.310214
vt 0.030832 0.364362
vt 0.030832 0.002203
vt 0.030832 0.940898
vt 0.054079 0.884228
vt 0.082504 0.897961
vt 0.068291 0.851271
vt 0.099559 0.880109
vt 0.093874 0.793595
vt 0.156410 0.832045
vt 0.119457 0.718066
vt 0.162095 0.735919
vt 0.110929 0.543665
vt 0.332646 0.708454
vt 0.324119 0.670003
vt 0.426450 0.771623
vt 0.440662 0.741411
vt 0.622584 0.869123
vt 0.517411 0.719440
vt 0.594159 0.742785
vt 0.491828 0.670003
vt 0.551521 0.686482
vt 0.474086 0.572503
vt 0.395182 0.521693
vt 0.568576 0.546412
vt 0.579946 0.518947
vt 0.730600 0.568383
vt 0.733442 0.545038
vt 0.997797 0.580742
vt 0.801663 0.514827
vt 0.864199 0.506588
vt 0.685119 0.472257
vt 0.727757 0.464017
vt 0.542993 0.432433
vt 0.597001 0.424193
vt 0.466245 0.395355
vt 0.272953 0.388489
vt 0.517411 0.350038
vt 0.744812 0.273137
vt 0.500355 0.269017
vt 0.537308 0.241552
vt 0.443505 0.274510
vt 0.463402 0.240179
vt 0.338331 0.286869
vt 0.406552 0.204475
vt 0.218945 0.258031
vt 0.181992 0.240179
vt 0.108087 0.310214
vt 0.030832 0.364362
s 0
usemtl マテリアル
f 37/37/1 40/40/1 44/44/1
f 98/98/2 86/86/2 62/62/2
f 27/27/3 77/77/3 28/28/3
f 14/14/4 64/64/4 15/15/4
f 41/41/5 91/91/5 42/42/5
f 28/28/6 78/78/6 29/29/6
f 15/15/7 65/65/7 16/16/7
f 42/42/8 92/92/8 43/43/8
f 29/29/9 79/79/9 30/30/9
f 16/16/10 66/66/10 17/17/10
f 43/43/11 93/93/11 44/44/11
f 1/1/12 52/52/12 3/3/12
f 30/30/13 80/80/13 31/31/13
f 17/17/14 67/67/14 18/18/14
f 44/44/15 94/94/15 45/45/15
f 4/4/16 51/51/16 2/2/16
f 31/31/17 81/81/17 32/32/17
f 18/18/18 68/68/18 19/19/18
f 45/45/19 95/95/19 46/46/19
f 5/5/20 55/55/20 6/6/20
f 32/32/21 82/82/21 33/33/21
f 19/19/22 69/69/22 20/20/22
f 46/46/23 96/96/23 47/47/23
f 6/6/24 56/56/24 7/7/24
f 33/33/25 83/83/25 34/34/25
f 20/20/26 70/70/26 21/21/26
f 47/47/27 97/97/27 48/48/27
f 7/7/28 57/57/28 8/8/28
f 34/34/29 84/84/29 35/35/29
f 21/21/30 71/71/30 22/22/30
f 48/48/31 98/98/31 49/49/31
f 8/8/32 58/58/32 9/9/32
f 35/35/33 85/85/33 36/36/33
f 22/22/34 72/72/34 23/23/34
f 2/2/35 54/54/35 5/5/35
f 9/9/36 59/59/36 10/10/36
f 36/36/37 86/86/37 37/37/37
f 23/23/38 73/73/38 24/24/38
f 49/49/39 50/50/39 1/1/39
f 10/10/40 60/60/40 11/11/40
f 37/37/41 87/87/41 38/38/41
f 24/24/42 74/74/42 25/25/42
f 11/11/43 61/61/43 12/12/43
f 38/38/44 88/88/44 39/39/44
f 25/25/45 75/75/45 26/26/45
f 12/12/46 62/62/46 13/13/46
f 39/39/47 89/89/47 40/40/47
f 26/26/48 76/76/48 27/27/48
f 13/13/49 63/63/49 14/14/49
f 40/40/50 90/90/50 41/41/50
f 145/145/1 133/133/1 109/109/1
f 180/180/2 183/183/2 187/187/2
f 171/171/51 123/123/51 124/124/51
f 158/158/52 110/110/52 111/111/52
f 185/185/53 137/137/53 138/138/53
f 172/172/54 124/124/54 125/125/54
f 159/159/55 111/111/55 112/112/55
f 186/186/56 138/138/56 139/139/56
f 173/173/57 125/125/57 126/126/57
f 160/160/58 112/112/58 113/113/58
f 187/187/59 139/139/59 140/140/59
f 52/52/12 99/99/12 3/3/12
f 174/174/60 126/126/60 127/127/60
f 161/161/61 113/113/61 114/114/61
f 188/188/62 140/140/62 141/141/62
f 147/147/63 4/4/63 100/100/63
f 175/175/64 127/127/64 128/128/64
f 162/162/65 114/114/65 115/115/65
f 189/189/66 141/141/66 142/142/66
f 149/149/67 101/101/67 102/102/67
f 176/176/68 128/128/68 129/129/68
f 163/163/69 115/115/69 116/116/69
f 190/190/70 142/142/70 143/143/70
f 150/150/71 102/102/71 103/103/71
f 177/177/72 129/129/72 130/130/72
f 164/164/73 116/116/73 117/117/73
f 191/191/74 143/143/74 144/144/74
f 151/151/75 103/103/75 104/104/75
f 178/178/76 130/130/76 131/131/76
f 165/165/77 117/117/77 118/118/77
f 192/192/78 144/144/78 145/145/78
f 152/152/79 104/104/79 105/105/79
f 179/179/80 131/131/80 132/132/80
f 166/166/81 118/118/81 119/119/81
f 148/148/82 100/100/82 101/101/82
f 153/153/83 105/105/83 106/106/83
f 180/180/84 132/132/84 133/133/84
f 167/167/85 119/119/85 120/120/85
f 146/146/86 145/145/86 99/99/86
f 154/154/87 106/106/87 107/107/87
f 181/181/88 133/133/88 134/134/88
f 168/168/89 120/120/89 121/121/89
f 155/155/90 107/107/90 108/108/90
f 182/182/91 134/134/91 135/135/91
f 169/169/92 121/121/92 122/122/92
f 156/156/93 108/108/93 109/109/93
f 183/183/94 135/135/94 136/136/94
f 170/170/95 122/122/95 123/123/95
f 157/157/50 109/109/50 110/110/50
f 184/184/49 136/136/49 137/137/49
f 49/49/1 1/1/1 3/3/1
f 3/3/1 4/4/1 2/2/1
f 5/5/1 6/6/1 7/7/1
f 3/3/1 2/2/1 5/5/1
f 49/49/1 3/3/1 5/5/1
f 7/7/1 8/8/1 9/9/1
f 49/49/1 5/5/1 7/7/1
f 46/46/1 47/47/1 48/48/1
f 48/48/1 49/49/1 7/7/1
f 9/9/1 10/10/1 11/11/1
f 48/48/1 7/7/1 9/9/1
f 45/45/1 46/46/1 48/48/1
f 42/42/1 43/43/1 44/44/1
f 44/44/1 45/45/1 48/48/1
f 11/11/1 12/12/1 13/13/1
f 13/13/1 14/14/1 15/15/1
f 15/15/1 16/16/1 17/17/1
f 17/17/1 18/18/1 19/19/1
f 19/19/1 20/20/1 21/21/1
f 21/21/1 22/22/1 23/23/1
f 24/24/1 25/25/1 26/26/1
f 21/21/1 23/23/1 24/24/1
f 17/17/1 19/19/1 21/21/1
f 15/15/1 17/17/1 21/21/1
f 15/15/1 21/21/1 24/24/1
f 9/9/1 11/11/1 13/13/1
f 13/13/1 15/15/1 24/24/1
f 26/26/1 27/27/1 28/28/1
f 26/26/1 28/28/1 29/29/1
f 30/30/1 31/31/1 32/32/1
f 26/26/1 29/29/1 30/30/1
f 24/24/1 26/26/1 30/30/1
f 32/32/1 33/33/1 34/34/1
f 24/24/1 30/30/1 32/32/1
f 48/48/1 9/9/1 13/13/1
f 13/13/1 24/24/1 32/32/1
f 34/34/1 35/35/1 36/36/1
f 13/13/1 32/32/1 34/34/1
f 44/44/1 48/48/1 13/13/1
f 40/40/1 41/41/1 42/42/1
f 13/13/1 34/34/1 36/36/1
f 37/37/1 38/38/1 39/39/1
f 13/13/1 36/36/1 37/37/1
f 40/40/1 42/42/1 44/44/1
f 37/37/1 39/39/1 40/40/1
f 44/44/1 13/13/1 37/37/1
f 52/52/2 50/50/2 98/98/2
f 97/97/2 96/96/2 95/95/2
f 53/53/2 52/52/2 98/98/2
f 98/98/2 97/97/2 95/95/2
f 95/95/2 94/94/2 93/93/2
f 93/93/2 92/92/2 91/91/2
f 91/91/2 90/90/2 89/89/2
f 89/89/2 88/88/2 87/87/2
f 86/86/2 85/85/2 84/84/2
f 89/89/2 87/87/2 86/86/2
f 93/93/2 91/91/2 89/89/2
f 98/98/2 95/95/2 93/93/2
f 51/51/2 53/53/2 98/98/2
f 56/56/2 55/55/2 54/54/2
f 54/54/2 51/51/2 98/98/2
f 98/98/2 93/93/2 89/89/2
f 86/86/2 84/84/2 83/83/2
f 98/98/2 89/89/2 86/86/2
f 56/56/2 54/54/2 98/98/2
f 58/58/2 57/57/2 56/56/2
f 60/60/2 59/59/2 58/58/2
f 62/62/2 61/61/2 60/60/2
f 64/64/2 63/63/2 62/62/2
f 66/66/2 65/65/2 64/64/2
f 68/68/2 67/67/2 66/66/2
f 70/70/2 69/69/2 68/68/2
f 72/72/2 71/71/2 70/70/2
f 75/75/2 74/74/2 73/73/2
f 73/73/2 72/72/2 70/70/2
f 70/70/2 68/68/2 66/66/2
f 70/70/2 66/66/2 64/64/2
f 73/73/2 70/70/2 64/64/2
f 62/62/2 60/60/2 58/58/2
f 73/73/2 64/64/2 62/62/2
f 77/77/2 76/76/2 75/75/2
f 78/78/2 77/77/2 75/75/2
f 81/81/2 80/80/2 79/79/2
f 79/79/2 78/78/2 75/75/2
f 79/79/2 75/75/2 73/73/2
f 83/83/2 82/82/2 81/81/2
f 81/81/2 79/79/2 73/73/2
f 62/62/2 58/58/2 56/56/2
f 81/81/2 73/73/2 62/62/2
f 86/86/2 83/83/2 81/81/2
f 62/62/2 56/56/2 98/98/2
f 86/86/2 81/81/2 62/62/2
f 27/27/3 76/76/3 77/77/3
f 14/14/4 63/63/4 64/64/4
f 41/41/5 90/90/5 91/91/5
f 28/28/6 77/77/6 78/78/6
f 15/15/7 64/64/7 65/65/7
f 42/42/8 91/91/8 92/92/8
f 29/29/9 78/78/9 79/79/9
f 16/16/10 65/65/10 66/66/10
f 43/43/11 92/92/11 93/93/11
f 1/1/12 50/50/12 52/52/12
f 30/30/13 79/79/13 80/80/13
f 17/17/14 66/66/14 67/67/14
f 44/44/15 93/93/15 94/94/15
f 4/4/16 53/53/16 51/51/16
f 31/31/17 80/80/17 81/81/17
f 18/18/18 67/67/18 68/68/18
f 45/45/19 94/94/19 95/95/19
f 5/5/20 54/54/20 55/55/20
f 32/32/21 81/81/21 82/82/21
f 19/19/22 68/68/22 69/69/22
f 46/46/23 95/95/23 96/96/23
f 6/6/24 55/55/24 56/56/24
f 33/33/25 82/82/25 83/83/25
f 20/20/26 69/69/26 70/70/26
f 47/47/27 96/96/27 97/97/27
f 7/7/28 56/56/28 57/57/28
f 34/34/29 83/83/29 84/84/29
f 21/21/30 70/70/30 71/71/30
f 48/48/31 97/97/31 98/98/31
f 8/8/32 57/57/32 58/58/32
f 35/35/33 84/84/33 85/85/33
f 22/22/34 71/71/34 72/72/34
f 2/2/35 51/51/35 54/54/35
f 9/9/36 58/58/36 59/59/36
f 36/36/37 85/85/37 86/86/37
f 23/23/38 72/72/38 73/73/38
f 49/49/39 98/98/39 50/50/39
f 10/10/40 59/59/40 60/60/40
f 37/37/41 86/86/41 87/87/41
f 24/24/42 73/73/42 74/74/42
f 11/11/43 60/60/43 61/61/43
f 38/38/44 87/87/44 88/88/44
f 25/25/45 74/74/45 75/75/45
f 12/12/46 61/61/46 62/62/46
f 39/39/47 88/88/47 89/89/47
f 26/26/48 75/75/48 76/76/48
f 13/13/49 62/62/49 63/63/49
f 40/40/50 89/89/50 90/90/50
f 3/3/1 99/99/1 145/145/1
f 144/144/1 143/143/1 142/142/1
f 4/4/1 3/3/1 145/145/1
f 145/145/1 144/144/1 142/142/1
f 142/142/1 141/141/1 140/140/1
f 140/140/1 139/139/1 138/138/1
f 138/138/1 137/137/1 136/136/1
f 136/136/1 135/135/1 134/134/1
f 133/133/1 132/132/1 131/131/1
f 136/136/1 134/134/1 133/133/1
f 140/140/1 138/138/1 136/136/1
f 145/145/1 142/142/1 140/140/1
f 100/100/1 4/4/1 145/145/1
f 103/103/1 102/102/1 101/101/1
f 101/101/1 100/100/1 145/145/1
f 145/145/1 140/140/1 136/136/1
f 133/133/1 131/131/1 130/130/1
f 145/145/1 136/136/1 133/133/1
f 103/103/1 101/101/1 145/145/1
f 105/105/1 104/104/1 103/103/1
f 107/107/1 106/106/1 105/105/1
f 109/109/1 108/108/1 107/107/1
f 111/111/1 110/110/1 109/109/1
f 113/113/1 112/112/1 111/111/1
f 115/115/1 114/114/1 113/113/1
f 117/117/1 116/116/1 115/115/1
f 119/119/1 118/118/1 117/117/1
f 122/122/1 121/121/1 120/120/1
f 120/120/1 119/119/1 117/117/1
f 117/117/1 115/115/1 113/113/1
f 117/117/1 113/113/1 111/111/1
f 120/120/1 117/117/1 111/111/1
f 109/109/1 107/107/1 105/105/1
f 120/120/1 111/111/1 109/109/1
f 124/124/1 123/123/1 122/122/1
f 125/125/1 124/124/1 122/122/1
f 128/128/1 127/127/1 126/126/1
f 126/126/1 125/125/1 122/122/1
f 126/126/1 122/122/1 120/120/1
f 130/130/1 129/129/1 128/128/1
f 128/128/1 126/126/1 120/120/1
f 109/109/1 105/105/1 103/103/1
f 128/128/1 120/120/1 109/109/1
f 133/133/1 130/130/1 128/128/1
f 109/109/1 103/103/1 145/145/1
f 133/133/1 128/128/1 109/109/1
f 192/192/2 146/146/2 52/52/2
f 52/52/2 53/53/2 147/147/2
f 148/148/2 149/149/2 150/150/2
f 52/52/2 147/147/2 148/148/2
f 192/192/2 52/52/2 148/148/2
f 150/150/2 151/151/2 152/152/2
f 192/192/2 148/148/2 150/150/2
f 189/189/2 190/190/2 191/191/2
f 191/191/2 192/192/2 150/150/2
f 152/152/2 153/153/2 154/154/2
f 191/191/2 150/150/2 152/152/2
f 188/188/2 189/189/2 191/191/2
f 185/185/2 186/186/2 187/187/2
f 187/187/2 188/188/2 191/191/2
f 154/154/2 155/155/2 156/156/2
f 156/156/2 157/157/2 158/158/2
f 158/158/2 159/159/2 160/160/2
f 160/160/2 161/161/2 162/162/2
f 162/162/2 163/163/2 164/164/2
f 164/164/2 165/165/2 166/166/2
f 167/167/2 168/168/2 169/169/2
f 164/164/2 166/166/2 167/167/2
f 160/160/2 162/162/2 164/164/2
f 158/158/2 160/160/2 164/164/2
f 158/158/2 164/164/2 167/167/2
f 152/152/2 154/154/2 156/156/2
f 156/156/2 158/158/2 167/167/2
f 169/169/2 170/170/2 171/171/2
f 169/169/2 171/171/2 172/172/2
f 173/173/2 174/174/2 175/175/2
f 169/169/2 172/172/2 173/173/2
f 167/167/2 169/169/2 173/173/2
f 175/175/2 176/176/2 177/177/2
f 167/167/2 173/173/2 175/175/2
f 191/191/2 152/152/2 156/156/2
f 156/156/2 167/167/2 175/175/2
f 177/177/2 178/178/2 179/179/2
f 156/156/2 175/175/2 177/177/2
f 187/187/2 191/191/2 156/156/2
f 183/183/2 184/184/2 185/185/2
f 156/156/2 177/177/2 179/179/2
f 180/180/2 181/181/2 182/182/2
f 156/156/2 179/179/2 180/180/2
f 183/183/2 185/185/2 187/187/2
f 180/180/2 182/182/2 183/183/2
f 187/187/2 156/156/2 180/180/2
f 171/171/51 170/170/51 123/123/51
f 158/158/52 157/157/52 110/110/52
f 185/185/53 184/184/53 137/137/53
f 172/172/54 171/171/54 124/124/54
f 159/159/55 158/158/55 111/111/55
f 186/186/56 185/185/56 138/138/56
f 173/173/57 172/172/57 125/125/57
f 160/160/58 159/159/58 112/112/58
f 187/187/59 186/186/59 139/139/59
f 52/52/12 146/146/12 99/99/12
f 174/174/60 173/173/60 126/126/60
f 161/161/61 160/160/61 113/113/61
f 188/188/62 187/187/62 140/140/62
f 147/147/63 53/53/63 4/4/63
f 175/175/64 174/174/64 127/127/64
f 162/162/65 161/161/65 114/114/65
f 189/189/66 188/188/66 141/141/66
f 149/149/67 148/148/67 101/101/67
f 176/176/68 175/175/68 128/128/68
f 163/163/69 162/162/69 115/115/69
f 190/190/70 189/189/70 142/142/70
f 150/150/71 149/149/71 102/102/71
f 177/177/72 176/176/72 129/129/72
f 164/164/73 163/163/73 116/116/73
f 191/191/74 190/190/74 143/143/74
f 151/151/75 150/150/75 103/103/75
f 178/178/76 177/177/76 130/130/76
f 165/165/77 164/164/77 117/117/77
f 192/192/78 191/191/78 144/144/78
f 152/152/79 151/151/79 104/104/79
f 179/179/80 178/178/80 131/131/80
f 166/166/81 165/165/81 118/118/81
f 148/148/82 147/147/82 100/100/82
f 153/153/83 152/152/83 105/105/83
f 180/180/84 179/179/84 132/132/84
f 167/167/85 166/166/85 119/119/85
f 146/146/86 192/192/86 145/145/86
f 154/154/87 153/153/87 106/106/87
f 181/181/88 180/180/88 133/133/88
f 168/168/89 167/167/89 120/120/89
f 155/155/90 154/154/90 107/107/90
f 182/182/91 181/181/91 134/134/91
f 169/169/92 168/168/92 121/121/92
f 156/156/93 155/155/93 108/108/93
f 183/183/94 182/182/94 135/135/94
f 170/170/95 169/169/95 122/122/95
f 157/157/50 156/156/50 109/109/50
f 184/184/49 183/183/49 136/136/49
